<?xml version="1.0" standalone="no"?>
<!DOCTYPE svg PUBLIC "-//W3C//DTD SVG 1.1//EN" "http://www.w3.org/Graphics/SVG/1.1/DTD/svg11.dtd" >
<!--
2013-9-30: Created.
-->
<svg>
<metadata>
Created by iconfont
</metadata>
<defs>

<font id="iconfont" horiz-adv-x="1024" >
  <font-face
    font-family="iconfont"
    font-weight="500"
    font-stretch="normal"
    units-per-em="1024"
    ascent="896"
    descent="-128"
  />
    <missing-glyph />
    
    <glyph glyph-name="zhusu" unicode="&#59186;" d="M878.652966 597.425535l-221.147872 0L657.505094 807.486659c0 33.147343-24.725028 59.994884-55.230518 59.994884L160.023991 867.481544c-30.55065 0-55.275678-26.847541-55.275678-59.994884l0-840.086439c0-33.124763 24.747607-59.994884 55.275678-59.994884l442.228004 0c4.786946 0 9.370673 0.903197 13.79634 2.167674 4.425667-1.264476 9.031974-2.167674 13.79634-2.167674l248.785711 0c30.55065 0 55.253098 26.870121 55.253098 59.994884L933.883484 537.408071C933.906064 570.623153 909.203616 597.425535 878.652966 597.425535L878.652966 597.425535zM325.851025 87.457729 215.299669 87.457729l0 119.989768 110.551356 0L325.851025 87.457729 325.851025 87.457729zM325.851025 327.437266 215.299669 327.437266l0 120.012348 110.551356 0L325.851025 327.437266 325.851025 327.437266zM325.851025 567.416803 215.299669 567.416803 215.299669 687.474311l110.551356 0L325.851025 567.416803 325.851025 567.416803zM519.338479 87.457729l-110.551356 0 0 119.989768L519.338479 207.447497 519.338479 87.457729 519.338479 87.457729zM519.338479 327.437266l-110.551356 0 0 120.012348L519.338479 447.449614 519.338479 327.437266 519.338479 327.437266zM519.338479 567.416803l-110.551356 0L408.787122 687.474311 519.338479 687.474311 519.338479 567.416803 519.338479 567.416803zM823.377288 87.457729l-110.551356 0 0 119.989768 110.551356 0L823.377288 87.457729 823.377288 87.457729zM823.377288 327.437266l-110.551356 0 0 120.012348 110.551356 0L823.377288 327.437266 823.377288 327.437266zM823.377288 327.437266"  horiz-adv-x="1024" />

    
    <glyph glyph-name="dache" unicode="&#58948;" d="M990.277 403.758c0 27.913-34.886 50.553-77.921 50.553-13.985 0-27.076-2.414-38.416-6.595l-58.991 168.39c-13.564 22.359-15.271 46.331-36.789 46.331h-92.801l-13.252 68.048c-5.471 19.263-31.521 27.186-53.036 27.186H406.955c-21.515 0-47.738-7.923-53.027-27.186l-13.261-68.048h-92.803c-21.515 0-27.467-26.743-36.8-46.331l-58.967-168.39c-11.35 4.182-24.462 6.595-38.437 6.595-43.034 0-77.913-22.641-77.913-50.553 0-27.91 34.879-50.551 77.913-50.551 0.352 0 0.692 0.038 1.044 0.038 0.201-1.246 0.282-2.414 0.583-3.699-3.619-63.221 31.31-268.976 37.341-299.701 7.842-34.546 20.692-40.458 42.208-40.458h79.54c21.515 0 34.105 18.138 34.105 40.458v43.877c10.124-1.044 20.681-2.012 32.182-2.694 125.52-7.562 237.061-8.485 344.694 0 11.323 0.885 21.929 1.97 32.194 3.137v-44.32c0-22.32 12.578-40.458 34.094-40.458h79.55c21.516 0 36.787 16.972 42.198 40.458 12.619 36.679 63.648 252.924 50.363 303.965 37.613 3.578 66.518 24.532 66.518 49.95zM247.863 186.263c-43.938 0-79.539 36.557-79.539 81.641s35.601 81.642 79.539 81.642c43.927 0 79.551-36.558 79.551-81.642s-35.623-81.641-79.551-81.641z m397.72 231.29c-55.236-7.522-196.782-4.745-238.628 0-41.857 4.705-137.453 16.53-137.453 16.53-21.517 0-38.961 18.137-38.961 40.458l19.497 80.879c8.101 28.433 16.085 39.01 37.604 39.01h450.745c21.527 0 29.491-10.577 37.615-39.01l19.476-80.879c0-22.321-17.444-40.458-38.961-40.458-0.002-0.001-55.684-8.971-110.934-16.53z m145.84-231.29c-43.936 0-79.55 36.557-79.55 81.641s35.613 81.642 79.55 81.642c43.918 0 79.539-36.558 79.539-81.642s-35.622-81.641-79.539-81.641z"  horiz-adv-x="1024" />

    
    <glyph glyph-name="lvyou" unicode="&#58949;" d="M390.089 334.376c-40.58 46.854-93.197 137.205-65.687 246.345 146.502-64.62 131.918-253.587 147.796-541.944h-32.842v65.687H324.401s-114.953-8.342-114.953-49.267 90.942-82.108 328.441-82.108c237.512 0 279.174 62.322 279.174 82.108 0 19.823-23.615 49.267-114.954 49.267h-65.687s-12.187 185.85 114.954 377.723c16.078-22.365 38.23-73.01-32.846-164.235 84.639 7.966 101.555 59.416 98.533 131.393 23.796-12.337 41.924-37.214 32.847-131.393 49.462 29.791 76.492 118.286 0 180.66 34.568-2.087 53.172-3.334 65.687-65.687 46.228 40.773-15.322 156.486-114.955 131.375-19.51 118.484-197.066 102.048-197.066 32.846 39.71 7.863 84.966 6.372 98.533-16.425-44.685-1.79-98.533-8.29-98.533-131.375 40.316 45.568 56.494 69.513 131.375 65.686-48.379-29.592-147.796-164.91-147.796-476.255-27.082-0.398-49.267 0-49.267 0s21.166 442.903-164.221 574.79c75.457 6.931 135.201 8.13 197.063-114.955 9.298 67.33 9.493 211.761-147.796 197.064 17.256 33.897 15.535 57.693 147.796 49.266-85.886 126.45-274.199 54.327-279.175-65.687 0 0-197.706 40.712-197.066-164.222 52.467 51.83 77.07 73.803 98.533 82.113-27.982-38.71-97.414-141.428 0-229.926 3.365 118.86 30.072 137.994 49.267 164.234 1.12-59.38 5.14-193.285 147.8-197.078"  horiz-adv-x="1024" />

    
    <glyph glyph-name="fenzu" unicode="&#58885;" d="M360.544 384.672V46.39999999999998a52.8 52.8 0 0 0-105.6 0V384.736a382.688 382.688 0 0 0-47.2 10.112 80 80 0 0 0-58.4 77.024V512c0 1.312 0 2.624 0.096 3.936a32.448 32.448 0 0 0-0.096 2.464V736a32 32 0 0 0 32 32h6.4a32 32 0 0 0 32-32v-223.2a26.4 26.4 0 1 1 52.8 0V736a32 32 0 0 0 32 32h6.4a32 32 0 0 0 32-32v-223.2a26.4 26.4 0 1 1 52.8 0V736a32 32 0 0 0 32 32h6.4a32 32 0 0 0 32-32v-217.6c0-0.832-0.032-1.664-0.096-2.464l0.096-3.936v-40.192a80 80 0 0 0-58.4-77.024c-15.712-4.416-31.456-7.776-47.2-10.112z m451.2-27.04v-311.232a52.8 52.8 0 0 0-105.6 0v311.232c-61.536 28.992-105.6 107.2-105.6 199.168 0 116.64 70.912 211.2 158.4 211.2 87.456 0 158.4-94.56 158.4-211.2 0-91.968-44.096-170.176-105.6-199.168z"  horiz-adv-x="1056" />

    
    <glyph glyph-name="dianying" unicode="&#58894;" d="M488 480c-57.6 0-104 46.4-104 104s46.4 104 104 104 104-46.4 104-104-46.4-104-104-104z m0 144c-22.4 0-40-17.6-40-40s17.6-40 40-40 40 17.6 40 40-17.6 40-40 40zM312 256c-57.6 0-104 46.4-104 104s46.4 104 104 104 104-46.4 104-104-46.4-104-104-104z m0 144c-22.4 0-40-17.6-40-40s17.6-40 40-40 40 17.6 40 40-17.6 40-40 40z m224-320c-57.6 0-104 46.4-104 104s46.4 104 104 104 104-46.4 104-104-46.4-104-104-104z m0 144c-22.4 0-40-17.6-40-40s17.6-40 40-40 40 17.6 40 40-17.6 40-40 40z m176 80c-57.6 0-104 46.4-104 104s46.4 104 104 104 104-46.4 104-104-46.4-104-104-104z m0 144c-22.4 0-40-17.6-40-40s17.6-40 40-40 40 17.6 40 40-17.6 40-40 40z m216-512H512C265.6-64 64 137.6 64 384S265.6 832 512 832s448-201.6 448-448c0-121.6-48-235.2-134.4-320-12.8-12.8-33.6-12.8-44.8 0-12.8 12.8-12.8 33.6 0 44.8C854.4 182.4 896 280 896 384c0 211.2-172.8 384-384 384S128 595.2 128 384s172.8-384 384-384h416c17.6 0 32-14.4 32-32s-14.4-32-32-32z"  horiz-adv-x="1024" />

    
    <glyph glyph-name="meijing" unicode="&#59109;" d="M512 896c282.760533 0 512-229.239467 512-512 0-282.760533-229.239467-512-512-512-282.760533 0-512 229.239467-512 512C0 666.760533 229.239467 896 512 896z m-106.496-274.363733C325.905067 596.992 204.8 145.066667 204.8 145.066667h614.4c-1.536 4.983467-94.481067 305.152-157.559467 325.597866a16.622933 16.622933 0 0 1-11.093333 0.341334c-21.845333-6.621867-48.0256-59.1872-71.748267-120.149334-46.830933 121.344-108.2368 254.293333-157.149866 270.199467a21.435733 21.435733 0 0 1-16.110934 0.580267z m148.650667 64.375466a68.266667 68.266667 0 1 1 52.224-126.1568 68.266667 68.266667 0 0 1-52.224 126.1568z"  horiz-adv-x="1024" />

    
    <glyph glyph-name="miaosha2" unicode="&#59036;" d="M587.8784 381.44l-49.3568 12.288V520.6016c0 8.192-5.7344 15.1552-13.824 16.7936-7.9872 1.6384-15.9744-2.6624-19.1488-10.24l-77.9264-186.9824c-2.048-4.8128-1.7408-10.1376 0.7168-14.6432 2.3552-4.5056 6.656-7.7824 11.776-8.8064l62.5664-12.4928-13.824-124.7232c-0.9216-8.4992 4.5056-16.2816 12.8-18.432 1.4336-0.4096 2.8672-0.512 4.3008-0.512 6.7584 0 13.1072 4.096 15.7696 10.5472l77.9264 186.9824c1.9456 4.608 1.7408 9.8304-0.512 14.336-2.4576 4.5056-6.4512 7.7824-11.264 9.0112z m-51.8144-86.4256l2.3552 21.1968c1.024 8.8064-4.9152 16.896-13.7216 18.7392l-57.4464 11.4688 36.864 88.576v-54.4768c0-7.8848 5.4272-14.7456 13.0048-16.5888l43.008-10.752-24.064-58.1632zM505.856 152.3712c-2.2528 0-4.3008 0.3072-6.3488 0.8192-12.288 3.1744-20.1728 14.6432-18.8416 27.3408l13.0048 117.248-55.1936 10.9568c-7.4752 1.4336-13.824 6.2464-17.408 13.0048s-3.8912 14.6432-1.024 21.6064l77.9264 186.9824c4.7104 11.1616 16.5888 17.5104 28.3648 15.1552 11.776-2.3552 20.3776-12.8 20.3776-24.7808v-120.5248l43.2128-10.752c7.0656-1.8432 13.0048-6.5536 16.384-13.1072 3.3792-6.5536 3.6864-14.336 0.8192-21.1968l-77.9264-186.9824c-3.9936-9.6256-13.1072-15.7696-23.3472-15.7696z m15.4624 377.2416c-3.584 0-6.8608-2.1504-8.2944-5.5296l-77.824-187.0848c-1.024-2.4576-0.9216-5.2224 0.4096-7.68 1.2288-2.3552 3.4816-3.9936 6.144-4.5056l69.9392-13.9264-14.6432-132.1984c-0.512-4.4032 2.3552-8.4992 6.656-9.6256 0.7168-0.2048 1.4336-0.3072 2.2528-0.3072 3.584 0 6.8608 2.2528 8.192 5.5296l77.9264 186.9824c1.024 2.4576 0.9216 5.12-0.2048 7.3728-1.2288 2.4576-3.3792 4.096-5.9392 4.7104L530.432 387.1744V520.6016c0 4.1984-3.072 7.8848-7.168 8.8064-0.7168 0.1024-1.3312 0.2048-1.9456 0.2048z m0.1024-291.1232l8.9088 78.5408c0.512 4.608-2.56 8.8064-7.168 9.728l-67.2768 13.4144 56.5248 135.5776v-95.5392c0-4.096 2.7648-7.68 6.8608-8.704l52.224-13.1072-50.0736-119.9104z m-42.8032 113.9712l47.616-9.5232c6.9632-1.4336 12.6976-5.4272 16.2816-10.8544l6.3488 15.2576-33.792 8.4992c-11.3664 2.8672-19.2512 13.0048-19.2512 24.576v13.5168l-17.2032-41.472zM779.8784 591.2576l44.3392 44.3392c6.656 6.656 6.656 17.5104 0 24.2688-6.656 6.656-17.5104 6.656-24.2688 0l-44.3392-44.3392c-64 58.1632-148.992 93.696-242.0736 93.696-198.5536 0-360.0384-161.5872-360.0384-360.0384s161.4848-360.0384 360.0384-360.0384S873.5744 150.6304 873.5744 349.184c0 93.184-35.5328 178.0736-93.696 242.0736zM530.7392 23.8592v50.9952c0 9.5232-7.68 17.2032-17.2032 17.2032s-17.2032-7.68-17.2032-17.2032v-50.9952c-165.9904 8.6016-299.4176 142.1312-308.1216 308.1216h50.9952c9.5232 0 17.2032 7.68 17.2032 17.2032s-7.68 17.2032-17.2032 17.2032h-50.9952c8.6016 165.9904 142.1312 299.52 308.1216 308.1216v-50.9952c0-9.5232 7.68-17.2032 17.2032-17.2032s17.2032 7.68 17.2032 17.2032v50.9952c165.9904-8.6016 299.52-142.1312 308.1216-308.1216h-50.9952c-9.5232 0-17.2032-7.68-17.2032-17.2032s7.68-17.2032 17.2032-17.2032h50.9952c-8.704-165.888-142.2336-299.4176-308.1216-308.1216z m-85.7088 719.6672h137.1136c9.5232 0 17.2032 7.68 17.2032 17.2032s-7.68 17.1008-17.2032 17.1008H445.0304c-9.5232 0-17.2032-7.68-17.2032-17.2032s7.68-17.1008 17.2032-17.1008zM513.536-23.1424C308.224-23.1424 141.2096 143.872 141.2096 349.184S308.224 721.5104 513.536 721.5104c88.6784 0 174.08-31.5392 241.5616-89.1904l36.2496 36.2496c11.4688 11.4688 30.208 11.4688 41.6768 0 11.4688-11.4688 11.4688-30.208 0-41.6768L796.672 590.7456c57.5488-67.4816 89.1904-152.7808 89.1904-241.5616 0-205.312-167.0144-372.3264-372.3264-372.3264z m0 720.0768c-191.7952 0-347.7504-155.9552-347.7504-347.7504s155.9552-347.7504 347.7504-347.7504S861.2864 157.4912 861.2864 349.184c0 86.528-32.1536 169.5744-90.5216 233.7792l-7.8848 8.704 52.6336 52.6336c1.9456 1.9456 1.9456 5.0176 0 6.8608-1.2288 1.2288-2.6624 1.4336-3.4816 1.4336-0.7168 0-2.1504-0.2048-3.4816-1.4336l-52.6336-52.6336-8.704 7.8848c-64.1024 58.368-147.1488 90.5216-233.6768 90.5216z m4.9152-685.9776v63.8976c0 2.6624-2.1504 4.9152-4.9152 4.9152s-4.9152-2.1504-4.9152-4.9152v-63.8976l-12.9024 0.7168c-83.2512 4.3008-161.792 39.3216-221.0816 98.6112-59.2896 59.2896-94.3104 137.8304-98.7136 221.0816l-0.7168 12.9024h63.8976c2.6624 0 4.9152 2.1504 4.9152 4.9152s-2.1504 4.9152-4.9152 4.9152h-63.8976l0.7168 12.9024c4.3008 83.3536 39.3216 161.792 98.6112 221.0816 59.2896 59.2896 137.8304 94.3104 221.0816 98.6112l12.9024 0.7168v-63.8976c0-2.6624 2.1504-4.9152 4.9152-4.9152s4.9152 2.1504 4.9152 4.9152v63.8976l12.9024-0.7168c83.3536-4.3008 161.792-39.3216 221.0816-98.6112 59.2896-59.2896 94.3104-137.8304 98.6112-221.0816l0.7168-12.9024h-63.8976c-2.6624 0-4.9152-2.1504-4.9152-4.9152s2.1504-4.9152 4.9152-4.9152h63.8976l-0.7168-12.9024c-4.4032-83.3536-39.424-161.792-98.7136-221.0816-59.2896-59.2896-137.8304-94.3104-221.0816-98.6112l-12.6976-0.7168zM201.4208 319.7952c14.0288-150.2208 132.4032-268.6976 282.624-282.624v37.7856c0 16.2816 13.2096 29.4912 29.4912 29.4912s29.4912-13.2096 29.4912-29.4912v-37.7856c150.2208 13.9264 268.5952 132.4032 282.624 282.624h-37.7856c-16.2816 0-29.4912 13.2096-29.4912 29.4912s13.2096 29.4912 29.4912 29.4912h37.7856c-13.9264 150.2208-132.4032 268.6976-282.624 282.624V623.616c0-16.2816-13.2096-29.4912-29.4912-29.4912s-29.4912 13.2096-29.4912 29.4912v37.7856c-150.2208-13.9264-268.6976-132.4032-282.624-282.624h37.7856c16.2816 0 29.4912-13.2096 29.4912-29.4912s-13.2096-29.4912-29.4912-29.4912h-37.7856z m380.6208 411.4432H445.0304c-16.2816 0-29.4912 13.2096-29.4912 29.3888 0 16.2816 13.2096 29.4912 29.4912 29.4912h137.1136c16.2816 0 29.4912-13.2096 29.4912-29.3888-0.1024-16.2816-13.312-29.4912-29.5936-29.4912z m-137.0112 34.304c-2.6624 0-4.9152-2.1504-4.9152-4.9152 0-2.6624 2.1504-4.8128 4.9152-4.8128h137.1136c2.6624 0 4.9152 2.1504 4.9152 4.9152 0 2.6624-2.1504 4.8128-4.9152 4.8128H445.0304z"  horiz-adv-x="1024" />

    
    <glyph glyph-name="hi" unicode="&#58891;" d="M439.272727 890.181818C211.2 854.690909 41.309091 682.472727 5.818182 450.909091c-33.163636-218.763636 104.727273-456.145455 314.181818-541.672727 79.127273-32 236.8-40.145455 322.909091-16.290909 145.454545 39.563636 269.963636 143.709091 332.218182 278.690909 34.327273 74.472727 44.8 122.763636 44.8 212.363636 0 93.090909-11.054545 142.545455-50.618182 224-81.454545 168.727273-246.109091 275.781818-436.945455 284.509091C500.363636 894.254545 458.472727 893.090909 439.272727 890.181818zM384 641.745455c-0.581818-2.909091-4.072727-21.527273-8.727273-42.472728-12.218182-55.854545-14.545455-52.363636 37.236364-52.363636 52.363636 0 47.127273-4.654545 58.763636 59.927273l6.981818 38.981818h29.09091c20.945455 0 28.509091-2.327273 26.181818-6.981818-1.163636-4.072727-12.8-61.672727-25.018182-128L485.818182 389.818182h-27.345455c-15.709091 0-27.927273 1.163636-27.927272 2.327273s4.072727 23.272727 8.727272 48.290909c4.654545 25.018182 8.727273 47.127273 8.727273 50.036363 0 2.327273-20.945455 4.072727-45.963636 4.072728-52.363636 0-44.8 8.727273-59.345455-68.072728L335.709091 389.818182h-28.509091c-20.945455 0-28.509091 2.327273-26.763636 7.563636 1.745455 3.490909 13.381818 61.090909 25.6 127.418182L328.727273 645.818182h27.927272c15.127273 0 27.345455-1.745455 27.345455-4.072727z m359.563636-2.909091c-1.745455-4.072727-11.636364-43.636364-22.690909-87.272728L701.672727 471.272727h-19.2c-16.290909 0-19.2 2.327273-19.2 13.381818 0 14.545455 16.872727 142.545455 20.363637 154.181819 1.745455 4.072727 13.381818 6.981818 32.581818 6.981818 21.527273 0 29.090909-2.327273 27.345454-6.981818z m-121.018181-69.818182c0-4.072727-6.981818-45.963636-15.709091-93.090909L590.545455 389.818182h-27.345455c-15.709091 0-27.927273 1.163636-27.927273 1.745454 0 1.163636 7.563636 42.472727 17.454546 91.927273 9.309091 49.454545 17.454545 90.181818 17.454545 91.345455 0 0.581818 11.636364 1.163636 26.181818 1.163636 16.872727 0 26.181818-2.327273 26.181819-6.981818z m-218.181819-341.527273c80.872727-15.127273 134.4-15.127273 215.272728 0 94.836364 16.872727 129.163636 19.781818 139.636363 11.054546 12.218182-9.890909 11.054545-30.836364-2.909091-58.181819-47.127273-91.927273-180.945455-153.6-291.490909-133.818181-100.072727 18.036364-208.872727 105.890909-208.872727 169.30909 0 33.163636 20.945455 34.909091 148.363636 11.636364z"  horiz-adv-x="1024" />

    
    <glyph glyph-name="huaban" unicode="&#58892;" d="M512 384c-567.941-640.188 567.941-640.188 0 0z m0 0c640.188-567.941 640.188 567.941 0 0z m0 0c567.941 640.188-567.941 640.188 0 0z m0 0c-640.188 567.941-640.188-567.941 0 0z"  horiz-adv-x="1024" />

    
    <glyph glyph-name="icon-" unicode="&#58893;" d="M251.76113265-66.46292570000003a125.27159459 125.27159459 0 0 0-125.09998964 125.09998966L126.66114301 709.36293604A125.27159459 125.27159459 0 0 0 251.76113265 834.4629257l520.56353716 0a125.27159459 125.27159459 0 0 0 125.09998966-125.09998966l0-650.64006963a125.27159459 125.27159459 0 0 0-125.09998966-125.09998964z m0 845.84067077a70.18641395 70.18641395 0 0 1-70.1006115-70.10061148l0-650.64006963a70.18641395 70.18641395 0 0 1 70.1006115-70.10061148l520.56353716 0a70.18641395 70.18641395 0 0 1 70.1006115 70.10061148L842.42528131 709.36293604a70.18641395 70.18641395 0 0 1-70.1006115 70.10061148zM306.07409111 356.45740969999997a27.5425903 27.5425903 0 1 0 0 54.99937814l411.85181778 0a27.5425903 27.5425903 0 1 0 0-54.99937814zM306.07409111 226.38087725000003a27.5425903 27.5425903 0 1 0 0 54.65616831l281.00306317 0a27.5425903 27.5425903 0 1 0 0-55.08518063zM306.07409111 486.96295444a27.5425903 27.5425903 0 1 0 0 55.08518063l411.85181778 0a27.5425903 27.5425903 0 1 0 0-55.08518063z"  horiz-adv-x="1024" />

    
    <glyph glyph-name="kuaidi" unicode="&#58880;" d="M1062.4 358.4l-19.2 6.4c-12.8 6.4-25.6 12.8-32 25.6-12.8 16-16 35.2-12.8 57.6 3.2 16 6.4 44.8 12.8 76.8 16 86.4 38.4 211.2 48 249.6 0 3.2 3.2 16 3.2 22.4 0 54.4-41.6 99.2-96 99.2h-188.8c-22.4 0-41.6-19.2-41.6-41.6 0-22.4 19.2-41.6 41.6-41.6h41.6c41.6 0 57.6-22.4 67.2-51.2 6.4-19.2 6.4-44.8 3.2-67.2-3.2-32-6.4-64-6.4-96-3.2-32-6.4-64-12.8-92.8-38.4-179.2-144-195.2-188.8-195.2h-112c-28.8 0-54.4 25.6-41.6 51.2 0 0 54.4 96 38.4 128-12.8 25.6-41.6 41.6-70.4 41.6h-352c-25.6 0-57.6-12.8-67.2-38.4-9.6-22.4 3.2-48 28.8-48h38.4l-105.6-153.6c-22.4-32-35.2-76.8-35.2-124.8-3.2-44.8 3.2-92.8 19.2-134.4 3.2-9.6 6.4-16 9.6-25.6C70.4-73.6 150.4-128 236.8-128c99.2 0 185.6 67.2 217.6 160l9.6 38.4H825.6c19.2-112 112-198.4 227.2-198.4 128 0 230.4 108.8 230.4 240-3.2 131.2-99.2 236.8-220.8 246.4zM249.6 32c-9.6-3.2-19.2-6.4-28.8-6.4-9.6 0-19.2 3.2-28.8 6.4-32 12.8-57.6 44.8-57.6 83.2 0 19.2 6.4 35.2 16 51.2 16 22.4 41.6 38.4 70.4 38.4 28.8 0 54.4-16 70.4-38.4 9.6-12.8 16-32 16-51.2 0-38.4-25.6-70.4-57.6-83.2z m816-3.2c-48 0-86.4 38.4-86.4 86.4 0 48 38.4 86.4 86.4 86.4 48 0 86.4-38.4 86.4-86.4 0-48-38.4-86.4-86.4-86.4zM512 768c0 54.4-32 102.4-83.2 102.4h-224C160 867.2 112 812.8 112 768v-140.8H512V768z"  horiz-adv-x="1287" />

    
    <glyph glyph-name="kuaidi1" unicode="&#58921;" d="M423.383 273.854c0.137-0.022 0.262-0.061 0.397-0.084l150.633-23.422 56.428-143.025c7.705-19.527 26.407-31.443 46.201-31.443a49.584 49.584 0 0 1 18.215 3.476c25.502 10.066 38.023 38.904 27.966 64.405l-66.87 169.487c-6.457 16.357-21.19 28.141-38.56 30.843L492.99 363.504c-0.647 29.288 2.579 59.619 7.191 88.516a273.558 273.558 0 0 0-24.24 21.506c-33.544 33.38-50.422 66.104-54.8 75.336l-0.025 0.055-0.17 0.367c-4.397 9.656-4.764 20.453-1.04 30.384 3.72 9.933 11.096 17.824 20.752 22.21a39.317 39.317 0 0 0 16.431 3.574c15.542 0 29.741-9.136 36.172-23.275l0.196-0.391c0.293-0.6 0.78-1.563 1.465-2.841 1.384-2.605 3.713-6.758 6.953-11.813 3.79-5.933 9.28-13.8 16.412-22.348 7.162 37.544-7.932 78.947-39.432 86.797-33.91 8.456-83.067-9.962-103.067-68.123-27.03-80.14-32.842-132.299-22.57-220.54 9.935-51.121 39.937-65.561 70.165-69.064zM812.749 349.147c33.45 0 33.45 121.154 0 121.154-33.454 0-60.576-27.12-60.576-60.576s27.12-60.578 60.576-60.578zM495.186 562.842c-3.342 5.22-5.76 9.515-7.28 12.355a93.812 93.812 0 0 0-1.602 3.123 24.493 24.493 0 0 1-0.283 0.568h0.004c-7.272 15.976-26.108 23.034-42.084 15.763-15.983-7.262-23.034-26.1-15.772-42.074 1.057-2.187 17.04-37.265 53.39-73.429 35.956-35.955 94.447-73.224 175.069-73.228h0.448c4.725 0 9.482 0.13 14.28 0.375 17.528 0.895 31.014 15.82 30.12 33.35-0.892 17.526-15.828 31.01-33.345 30.115a216.08 216.08 0 0 0-11.055-0.285c-60.88 0.131-102.24 26.817-130.763 54.805-14.08 13.947-24.449 28.117-31.127 38.562zM561.859 667.036c-10.93-5.85-22.678-7.68-34.626-7.68-10.439 0.008-21.096 1.372-31.853 2.775-10.037 1.304-18.898 3.37-26.804 6.185 12.14-15.704 29.555-27.493 50.397-32.342 48.06-11.197 96.095 18.696 107.297 66.754 4.95 21.267 1.848 42.52-7.305 60.586-16.003-1.964-37.538-5.947-48.409-14.34-4.962-3.807-7.479-7.811-7.52-12.988 0-0.267 0.008-0.541 0.03-0.848 1.019-19.219 5.391-32.602 5.455-45.884 0.018-6.848-1.307-13.682-5.032-20.598a3.97 3.97 0 0 0-1.63-1.62zM446.44 690.868c10.97-11.034 26.689-17.805 49.973-20.863 10.731-1.405 21.09-2.711 30.82-2.701 10.748 0 20.666 1.567 29.798 6.175 2.636 5.316 3.531 10.238 3.546 15.777 0.063 11.36-4.31 25.269-5.44 45.431-0.03 0.428-0.039 0.864-0.047 1.299-0.033 8.181 4.503 14.747 10.682 19.33 6.206 4.666 14.207 7.867 22.645 10.28 14.588 4.145 30.628 5.83 40.442 6.738a102.692 102.692 0 0 1-11.096 34.037c-15.178 28.48-43.367 49.433-77.793 53.932-4.545 0.598-9.053 0.881-13.513 0.881h-0.019c-51.06-0.002-95.467-37.894-102.252-89.911-0.59-4.524-0.88-9.02-0.88-13.458 0-6.14 0.548-12.183 1.605-18.09 3.924-22.007 10.547-37.81 21.528-48.857zM985.539 155.996c-38.493 50.156-92.033 59.882-129.69 59.378-2.363 6.37-4.809 13.03-7.354 20.066-23.077 63.801-74.902 94.19-105.405 107.04l-29.407 85.765c-0.926 2.687-2.427 5.085-4.327 7.115-1.321-19.792-17.3-35.965-37.594-37.008-5.015-0.252-9.959-0.383-14.688-0.383h-0.448c-13.495 0.002-26.321 0.998-38.495 2.802-0.059-2.49 0.324-5.034 1.258-7.508 3.87-10.26 15.331-15.432 25.598-11.559v0.008l37.759 14.27 89.606-261.32c15.512 16.951 35.11 29.835 57.475 37.42 14.381 4.875 29.32 7.354 44.378 7.354 47.977 0 91.57-24.74 116.54-63.96 14.862 0.711 18.667 9.413-5.206 40.52zM836.209 153.276c-61.895-20.985-95.062-88.178-74.074-150.075 20.985-61.895 88.172-95.062 150.075-74.076 61.897 20.986 95.062 88.18 74.076 150.075-20.988 61.897-88.175 95.064-150.077 74.076z m53.012-156.35c-24.453-8.294-51.003 4.817-59.287 29.264-8.287 24.453 4.819 51.003 29.263 59.287 24.454 8.295 51.004-4.819 59.288-29.263 8.294-24.454-4.809-50.994-29.264-59.288zM737.54 61.987H484.276c-21.897 44.175-29.425 89.27-31.92 118.608 6.502 1.99 11.262 7.97 11.262 15.124v43.694c0 8.776-7.113 15.89-15.888 15.89H123.99c-8.774 0-15.888-7.112-15.888-15.89v-43.694c0-8.776 7.114-15.888 15.888-15.888h1.751c-17.256-42.343-43.887-115.735-43.887-165.511h68.49c-5.958 29.726-2.026 60.414 11.614 88.05 16.347 33.101 44.595 57.868 79.554 69.711 14.392 4.883 29.318 7.35 44.387 7.35 59.25 0 111.843-37.713 130.875-93.857 8.063-23.776 9.216-48.243 4.61-71.252H738.666c-3.174 15.816-3.543 31.905-1.126 47.665zM247.89 153.276c-61.897-20.985-95.062-88.18-74.076-150.075 20.986-61.897 88.172-95.062 150.075-74.076 61.897 20.988 95.062 88.18 74.076 150.075-20.99 61.897-88.172 95.064-150.075 74.076z m53.012-156.35c-24.455-8.294-51.003 4.817-59.29 29.264-8.285 24.453 4.82 51.003 29.267 59.287 24.453 8.295 51.001-4.819 59.287-29.263 8.295-24.454-4.808-50.994-29.264-59.288zM318.863 297.69V545.037c0 11.707-9.488 21.2-21.196 21.2H46.78c-11.706 0-21.194-9.493-21.194-21.2V297.69c0-11.712 9.488-21.203 21.194-21.203H297.67c11.706 0.002 21.194 9.493 21.194 21.203zM230.95 461.981l-74.152-158.88c-1.192-2.29-3.113-3.432-5.767-3.432-0.367 0-1.008 0.092-1.923 0.272-1.557 0.459-2.724 1.327-3.502 2.611-0.779 1.28-0.985 2.652-0.619 4.117l27.052 110.954-55.75-13.869c-0.367-0.092-0.916-0.137-1.65-0.137-1.648 0-3.065 0.5-4.255 1.51-1.649 1.373-2.245 3.16-1.786 5.355l27.601 113.289c0.367 1.282 1.1 2.335 2.198 3.158 1.1 0.825 2.38 1.235 3.844 1.235h45.04c1.736 0 3.202-0.572 4.392-1.718 1.19-1.145 1.786-2.495 1.786-4.051 0-0.734-0.231-1.557-0.688-2.47l-23.48-63.578 54.378 13.457c0.735 0.182 1.282 0.274 1.65 0.274 1.74-0.004 3.298-0.69 4.67-2.062 1.649-1.825 1.968-3.838 0.96-6.035z"  horiz-adv-x="1024" />

    
    <glyph glyph-name="qicheqianlian-" unicode="&#58890;" d="M908.629333 152.23466699999994H257.877333c-19.285333 0-37.376 7.509333-50.858666 21.162666-13.482667 13.653333-20.992 31.573333-20.821334 50.858667l2.389334 479.232c0 19.114667-6.656 31.914667-39.765334 37.205333h-0.170666l-95.573334 16.384c-9.216 1.536-15.530667 10.410667-13.994666 19.626667 1.536 9.216 10.410667 15.530667 19.626666 13.994667l95.402667-16.384c45.397333-7.168 68.437333-31.061333 68.437333-70.997334L220.16 223.914667c0-10.069333 3.754667-19.456 10.922667-26.453334 7.168-7.168 16.554667-11.093333 26.624-11.093333h650.752c9.386667 0 17.066667-7.68 17.066666-17.066667s-7.509333-17.066667-16.896-17.066666zM859.989333 250.19733299999996l-602.624 1.877334c-18.944 0.170667-36.693333 7.509333-50.005333 20.992-13.312 13.482667-20.48 31.232-20.48 50.176l1.877333 353.962666L870.570667 626.346667c30.890667-1.194667 55.125333-26.282667 55.125333-57.173334V315.733333c0-36.181333-29.525333-65.536-65.706667-65.536zM257.706667 286.20799999999997l602.453333-1.877333c17.408 0 31.573333 14.165333 31.573333 31.402666V569.173333c0 12.458667-9.898667 22.698667-22.357333 23.04h-0.682667l-645.632 48.128-1.536-317.44c0-9.728 3.754667-18.944 10.581334-25.941333 6.485333-6.826667 15.701333-10.752 25.6-10.752zM324.096 95.91466700000001m-63.658667 0a63.658667 63.658667 0 1 1 127.317334 0 63.658667 63.658667 0 1 1-127.317334 0ZM324.096 15.189333000000033c-44.544 0-80.725333 36.181333-80.725333 80.725334s36.181333 80.725333 80.725333 80.725333c44.544 0 80.725333-36.181333 80.725333-80.725333s-36.181333-80.725333-80.725333-80.725334z m0 127.317334c-25.770667 0-46.592-20.821333-46.592-46.592s20.821333-46.592 46.592-46.592 46.592 20.821333 46.592 46.592-20.821333 46.592-46.592 46.592zM812.714667 95.91466700000001m-63.658667 0a63.658667 63.658667 0 1 1 127.317333 0 63.658667 63.658667 0 1 1-127.317333 0ZM812.714667 15.189333000000033c-44.544 0-80.725333 36.181333-80.725334 80.725334s36.181333 80.725333 80.725334 80.725333 80.725333-36.181333 80.725333-80.725333-36.181333-80.725333-80.725333-80.725334z m0 127.317334c-25.770667 0-46.592-20.821333-46.592-46.592s20.821333-46.592 46.592-46.592 46.592 20.821333 46.592 46.592-20.821333 46.592-46.592 46.592zM710.314667 478.037333H362.496c-9.386667 0-17.066667 7.68-17.066667 17.066667s7.68 17.066667 17.066667 17.066667h347.818667c9.386667 0 17.066667-7.68 17.066666-17.066667s-7.68-17.066667-17.066666-17.066667zM710.314667 379.904H362.496c-9.386667 0-17.066667 7.68-17.066667 17.066667s7.68 17.066667 17.066667 17.066666h347.818667c9.386667 0 17.066667-7.68 17.066666-17.066666s-7.68-17.066667-17.066666-17.066667z"  horiz-adv-x="1024" />

    
    <glyph glyph-name="location" unicode="&#58887;" d="M512.103132 575.879021a106.221743 106.221743 0 1 0-75.507022-31.354611A106.221743 106.221743 0 0 0 512.103132 575.879021m0 63.989002a170.850635 170.850635 0 1 1 120.939214-49.911422A169.570855 169.570855 0 0 1 512.103132 639.868023zM805.172761 771.685367a407.609942 407.609942 0 0 1-586.139257 0 431.285873 431.285873 0 0 1 0-599.576948L512.103132-128l293.069629 300.108419a431.285873 431.285873 0 0 1 0 599.576948z m-44.152411-557.344207l-248.917218-255.956007-248.917217 255.956007a365.377201 365.377201 0 0 0 0 508.712565 346.82039 346.82039 0 0 0 497.834435 0 365.377201 365.377201 0 0 0 0-508.712565z"  horiz-adv-x="1024" />

    
    <glyph glyph-name="qrcode" unicode="&#58889;" d="M742.8 774.5c-2.3-0.3-4.7-0.1-7-0.1-38 0-76 0.1-114-0.1-11 0-21.9-1.4-32.4-5.1-18.6-6.5-29.8-19.5-34.4-38.4-1.7-7-2.4-14.1-2.4-21.3 0-67.2-0.1-134.3 0.1-201.5 0-13.8 0.9-27.6 6.2-40.8 6.9-17.1 19.7-27.2 37.3-31.7 6.3-1.6 12.8-2.2 19.3-2.2h218c8.3 0 16.6 0.7 24.8 2.3 24.4 4.5 40.4 20.7 44.9 45 0.4 2.2-0.4 5.2 2.9 6.2v232c-0.4 0.4-0.5 0.9-0.5 1.5-1.5 4.8-1.7 9.8-3.3 14.7-7.1 21-21.7 33.4-42.8 38.8-6.4 1.6-12.8 2.4-19.5 2.1-1.3-0.1-3-1-3.9 0.9h-89c-0.4-2.6-2.7-2.1-4.3-2.3z m98.7-40.7c4 0 8.1-0.9 11.9-2.1 6.9-2.2 10.7-7.6 10.7-15.1 0-74.8 0.1-149.6-0.1-224.4 0-11.2-8.6-18-21.1-18.1-38.2-0.3-76.3-0.1-114.5-0.1h-113c-4.5 0-8.6 1.3-12.7 2.7-8.5 3.1-9.6 10.5-9.7 17.9-0.2 37.5-0.1 75-0.1 112.5V712.6c0 6.5 1.5 12.5 6.9 17 4.6 3.8 10.3 4.3 15.6 4.3 75.4 0.1 150.8 0 226.1-0.1zM742 776c-39.5-0.1-79-0.1-118.4-0.1-9.4 0-18.6-1-27.7-3.1-11.6-2.7-22.1-7.7-30-16.7-10.6-12.1-14.8-26.9-14.8-42.6-0.2-69.6-0.2-139.3 0-208.9 0-9.1 0.7-18.3 2.8-27.2 2.8-11.7 7.6-22.5 16.7-30.5 11.7-10.3 25.9-15 41.5-15 74.1-0.1 148.3-0.1 222.4 0 9.3 0 18.7 0.5 27.7 3 19 5.4 33.6 15.9 40 35.8 1.7 5.3 1.8 10.9 3.8 16.1-3.2-1-2.5-4-2.9-6.2-4.5-24.4-20.5-40.5-44.9-45-8.2-1.5-16.5-2.3-24.8-2.3h-218c-6.5 0-13 0.6-19.3 2.2-17.5 4.5-30.4 14.6-37.3 31.7-5.3 13.1-6.2 27-6.2 40.8-0.2 67.2-0.1 134.3-0.1 201.5 0 7.2 0.7 14.3 2.4 21.3 4.6 18.9 15.8 31.9 34.4 38.4 10.5 3.7 21.4 5 32.4 5.1 38 0.2 76 0.1 114 0.1 2.3 0 4.7-0.2 7 0.1 1.7 0.2 3.9-0.2 4.2 2.4-1.2-2.1-3.2-0.9-4.9-0.9zM120.6 485.7c2-12.5 5.5-24.4 14.3-34 11.5-12.7 26.5-18 43-18.1 75.1-0.3 150.2-0.3 225.4 0 9.4 0 18.9 1 28.1 3.9 24.5 7.7 39.1 27.3 39.1 53.1 0 74 0 147.9 0.1 221.9 0 6.4-0.8 12.6-2.4 18.8-5.8 22.4-24.5 39.1-47.5 42.3-4.1 0.6-8.2 1.1-12.4 1.1-2 0-4.5-0.6-5.2 2.4h-89c-1.3-2.1-3.3-0.9-4.9-0.9-41.1-0.1-82.2 0.2-123.3-0.2-14.8-0.1-29.2-2.6-42.2-10.7-12.5-7.8-19.8-19.1-23.7-33-0.8-2.7-0.2-5.7-1.9-8.2v-233c2.9-0.9 2.2-3.5 2.5-5.4z m39.5 231c0 8.1 6.2 14.6 14.5 16.3 4.4 0.9 8.8 1 13.2 1h219c4.3 0 8.4-0.8 12.4-2 7.5-2.4 10.8-6.9 10.8-14.6v-225.5c0-8.2-3.8-13.3-11.6-15.9-4-1.3-8.1-2.1-12.4-2-37.2 0.1-74.3 0.1-111.5 0.1-37.7 0-75.3-0.1-113 0.1-6.3 0-12.6 0.9-17.3 6.1-2.7 3-4.1 6.3-4.1 10.1-0.1 75.3-0.1 150.8 0 226.3zM119 488.5c0.1-8.9 2.6-17.3 6.4-25.1 10.4-21.4 28.9-31 51.6-31.2 74.5-0.6 149-0.2 223.4-0.2 9.3 0 18.6 0.8 27.7 3 27.1 6.7 43.6 26.4 43.8 54.4 0.5 73.8 0.2 147.6 0.2 221.4 0 4.9 0 9.8-0.9 14.7-3 16.2-10.7 29.4-24.2 39-11 7.8-23.5 11-36.9 11.4-2.3 0.1-4.9-1.2-6.9 0.9 0.7-3 3.3-2.4 5.2-2.4 4.2 0 8.3-0.6 12.4-1.1 23-3.2 41.7-19.9 47.5-42.3 1.6-6.2 2.4-12.4 2.4-18.8-0.1-74 0-147.9-0.1-221.9 0-25.7-14.6-45.3-39.1-53.1-9.2-2.9-18.7-3.9-28.1-3.9-75.1-0.2-150.2-0.3-225.4 0-16.5 0.1-31.4 5.4-43 18.1-8.8 9.7-12.3 21.5-14.3 34-0.3 1.9 0.4 4.6-2.6 5.2 1.3-0.1 0.9-1.3 0.9-2.1zM191.8 13.299999999999955c2.1 0.3 4.3 0.1 6.5 0.1h206c8.4 0 16.6 1 24.7 3.1 25.5 6.6 41.4 26.9 41.5 53.2 0.1 25.3 0 50.7 0 76v148c0 32.3-21.4 56.2-53.6 59.7-11.4 1.2-22.9 1.7-34.4 2-34.5 0.7-69-0.5-103.4-1.3-33-0.8-66-0.2-98.9-0.7-11.5-0.2-22.6-2.7-32.7-8.1-13.6-7.2-21.9-18.5-25.7-33.4-0.7-2.8-0.1-6.5-3.7-8v-234c2-5.5 2.2-11.4 3.9-17.1 5.9-20.7 19.4-33.3 39.8-38.9 6.5-1.8 13.2-2.3 19.9-2.1 1.4 0 3.3 1.1 4.4-0.9h2c0.2 2.3 2.1 2.2 3.7 2.4z m-11.4 40.6c-12.2 0-20.7 6.6-20.6 20.5 0.4 73.3 0.2 146.6 0.1 220 0 11.8 7 18.1 18.3 18.5 74.6 2.4 149.1 0.5 223.7 0.8 6.4 0 13.4 0.4 19.6-3 5.4-3 8.5-7.2 8.5-13.7-0.1-37.5 0-75 0-112.5 0-37.2-0.2-74.3 0.1-111.5 0.1-12.1-7.8-17.6-18.7-19.3-8.6-1.3-17 0-25.5 0.1-68.5 0.2-137 0.1-205.5 0.1zM193.5 11.799999999999955c67.8 0.1 135.7 0.1 203.5 0 9.4 0 18.7 0.2 28 2.1 12.5 2.5 23.8 7.8 32.5 17.1 9.7 10.4 14.5 23.4 14.5 37.6 0.2 74.3 0.1 148.7 0.1 223 0 6.3-0.4 12.4-2 18.5-5.3 19.9-17.3 33.7-36.7 41.3-13.3 5.2-27.3 5-41 5.3-23.1 0.5-46.2 0.9-69.3-0.5-19-1.2-38.2-0.3-57.3-1-27.6-0.9-55.3-0.3-83-0.2-6.4 0-12.7-0.6-19-2-18.4-4.2-32.5-13.8-40.6-31.3-2.6-5.7-2.8-12-5.2-17.7 3.7 1.5 3 5.2 3.7 8 3.8 14.9 12.2 26.2 25.7 33.4 10.2 5.4 21.2 7.9 32.7 8.1 33 0.5 65.9-0.1 98.9 0.7 34.5 0.8 68.9 2 103.4 1.3 11.5-0.2 23-0.7 34.4-2 32.2-3.5 53.5-27.4 53.6-59.7v-148c0-25.3 0.1-50.7 0-76-0.2-26.4-16-46.6-41.5-53.2-8.1-2.1-16.3-3.1-24.7-3.1h-206c-2.2 0-4.3 0.1-6.5-0.1-1.6-0.2-3.5 0-3.7-2.4 1.5 1.9 3.7 0.8 5.5 0.8zM143.6 765.1c13 8 27.4 10.6 42.2 10.7 41.1 0.4 82.2 0.1 123.3 0.2 1.6 0 3.6-1.2 4.9 0.9-1.7-1-3.6-0.5-5.4-0.5-44.8-0.3-89.6 0.8-134.4-0.6-18.9-0.6-34.9-8.1-46.5-23.6-6.3-8.4-9.1-18-9.7-28.3 1.8 2.4 1.2 5.4 1.9 8.2 4 13.9 11.2 25.2 23.7 33zM840 776c6.6 0.3 13.1-0.5 19.5-2.1 21-5.4 35.7-17.8 42.8-38.8 1.6-4.8 1.8-9.9 3.3-14.7v0.4c0.4 28.1-24.4 53.2-52.7 55.3-5.6 0.4-11.2-0.5-16.8 0.9 0.8-2.1 2.6-1.1 3.9-1zM181.6 11.799999999999955c-6.7-0.2-13.4 0.3-19.9 2.1-20.4 5.6-33.9 18.2-39.8 38.9-1.6 5.7-1.8 11.6-3.9 17.1 1.1-5.3 0.8-10.8 2.1-16.1 5.5-22.8 25.5-40.6 48.6-42 5.8-0.4 11.6 0.6 17.3-0.8-1.1 1.9-3 0.9-4.4 0.8zM608.4 228.79999999999995c-12.3-0.2-20.4-8.3-20.4-20V37c0-12.3 8.5-20.1 20.8-19.9 12.9 0.2 21 6.9 21.1 19.7 0.2 57.4 0.1 114.9 0 172.3 0 12-8.4 19.9-21.5 19.7zM861.4 228.60000000000002c-9.9 1.8-23.3-4.9-23.3-18.2-0.2-29.2 0-58.3 0-87.5v-87c0-1.6-0.1-3.4 0.4-4.9 3.3-9.4 14.4-16.2 23.5-14 11.4 2.7 17.9 7.2 18 21.4 0.2 55.5 0.1 111 0.1 166.5-0.1 14.4-4.6 21.1-18.7 23.7zM768.7 168.70000000000005c-2.6 9.4-13 16.8-22.1 15.1-12.4-2.4-19.4-6.6-19.5-20.9-0.3-41.1-0.1-82.3-0.1-123.4 0-13.8 5.7-20 17.5-22.2 11.1-2.1 24.4 4.5 24.5 19.1v63.5 64.5c0 1.3 0 2.9-0.3 4.3zM741 351.20000000000005c-8.7-1.9-14-10.2-14-19.8V243c0-13.1 4-21 18.1-23.7 10.3-1.9 24 5.2 23.9 18.5-0.1 15.8 0 31.6 0 47.5 0 15.3-0.2 30.6 0 46 0.3 19-14.6 22.8-28 19.9zM622 348.6c-4.9 3.4-10.1 3.3-15.4 3.3-10.5 0-18.5-7.9-18.5-18.3v-26c0-9-0.1-18 0-27 0.1-4.6 1.3-8.7 4.9-12.3 5.2-5.2 11.2-6.7 18.2-6.5 9.9 0.3 18.8 8.9 18.8 18.7 0.1 17.7 0.2 35.3-0.1 53 0 6.1-2.4 11.3-7.9 15.1zM878.3 340.1c-2.2 6.2-9.8 11.8-17.9 12-14.3 0.5-23.6-7.9-22.5-22.8 0.5-7 0.1-14 0.1-21v-25c0-1.5 0-3 0.4-4.4 3.2-10.3 12.9-15.5 23.9-14 11 1.6 17.4 8.4 17.6 19.7 0.3 15.8 0.1 31.7 0.1 47.5 0 2.9-0.8 5.5-1.7 8zM352 638.2c-1.9 7.3-7.9 12.7-15.4 13.7-1.3 0.2-2.7 0.4-4 0.4-0.6 0-1.5-0.2-1.7 0.8h-28.8c-0.4-0.7-1.1-0.3-1.6-0.3-13.3 0-26.6 0.1-39.9-0.1-4.8 0-9.5-0.9-13.7-3.5-4.1-2.5-6.4-6.2-7.7-10.7-0.2-0.9 0-1.9-0.6-2.6v-75.5c1-0.2 0.7-1.1 0.8-1.7 0.7-4.1 1.8-7.9 4.6-11 3.7-4.1 8.6-5.8 13.9-5.9 24.3-0.1 48.7-0.1 73 0 3.1 0 6.1 0.3 9.1 1.3 7.9 2.5 12.7 8.9 12.7 17.2v71.9c0.1 2-0.2 4-0.7 6zM785.5 645.9c-1.9 7.3-7.9 12.7-15.4 13.7-1.3 0.2-2.7 0.4-4 0.4-0.6 0-1.5-0.2-1.7 0.8h-28.8c-0.4-0.7-1.1-0.3-1.6-0.3-13.3 0-26.6 0.1-39.9-0.1-4.8 0-9.5-0.9-13.7-3.5-4.1-2.5-6.4-6.2-7.7-10.7-0.2-0.9 0-1.9-0.6-2.6v-75.5c1-0.2 0.7-1.1 0.8-1.7 0.7-4.1 1.8-7.9 4.6-11 3.7-4.1 8.6-5.8 13.9-5.9 24.3-0.1 48.7-0.1 73 0 3.1 0 6.1 0.3 9.1 1.3 7.9 2.5 12.7 8.9 12.7 17.2v71.9c0.2 2-0.2 4.1-0.7 6zM351.4 219.39999999999998c-1.9 7.3-7.9 12.7-15.4 13.7-1.3 0.2-2.7 0.4-4 0.4-0.6 0-1.5-0.2-1.7 0.8h-28.8c-0.4-0.7-1.1-0.3-1.6-0.3-13.3 0-26.6 0.1-39.9-0.1-4.8 0-9.5-0.9-13.7-3.5-4.1-2.5-6.4-6.2-7.7-10.7-0.2-0.9 0-1.9-0.6-2.6v-75.5c1-0.2 0.7-1.1 0.8-1.7 0.7-4.1 1.8-7.9 4.6-11 3.7-4.1 8.6-5.8 13.9-5.9 24.3-0.1 48.7-0.1 73 0 3.1 0 6.1 0.3 9.1 1.3 7.9 2.5 12.7 8.9 12.7 17.2v71.9c0.1 2-0.2 4-0.7 6z"  horiz-adv-x="1024" />

    
    <glyph glyph-name="geren" unicode="&#58882;" d="M511.999983 819.506206c125.754386 0 228.325886-102.583663 228.325886-228.338049 0-125.766549-102.5715-228.338049-228.325886-228.338049-125.742223 0-228.338049 102.5715-228.338049 228.338049C283.661934 716.922543 386.25776 819.506206 511.999983 819.506206zM906.291494-52.22383 117.708472-52.22383c7.249213 186.533443 180.987065 335.823445 394.291511 335.823445S899.054444 134.309613 906.291494-52.22383z"  horiz-adv-x="1024" />

    
    <glyph glyph-name="faxian" unicode="&#58905;" d="M512.448 835.072a448 448 0 1 1 0-896 448 448 0 0 1 0 896zM730.24 560.64L635.392 360.96c-17.792-37.44-63.04-81.216-101.12-97.664l-202.88-87.744c-19.008-8.256-32.64-8.128-39.296-1.216-6.656 6.848-6.336 20.48 2.56 39.232l94.848 199.68c17.792 37.44 63.04 81.152 101.12 97.664l202.88 87.744c19.008 8.256 32.64 8.128 39.296 1.216 6.656-6.912 6.336-20.544-2.56-39.232zM512 384m-64 0a64 64 0 1 1 128 0 64 64 0 1 1-128 0Z"  horiz-adv-x="1024" />

    
    <glyph glyph-name="index" unicode="&#58881;" d="M569.8048 874.7264a82.0736 82.0736 0 0 1-110.2848 0L13.568 451.2768a41.1392 41.1392 0 0 1 55.0912-61.1072l7.0912 6.7328V-45.05600000000004a82.2784 82.2784 0 0 1 82.2784-82.3808h239.4368v247.7056a57.9328 57.9328 0 0 0 57.9584 58.0096h112.6656a57.9328 57.9328 0 0 0 57.9584-58.0096v-247.7056h245.12a82.2784 82.2784 0 0 1 82.304 82.3808V391.5008c18.2784-16.5376 44.2112-15.2832 59.4176 1.664a41.1392 41.1392 0 0 1-2.9696 58.112L569.8048 874.7008z"  horiz-adv-x="1024" />

    
    <glyph glyph-name="dongtai" unicode="&#59171;" d="M606.72 552.533333c-15.36 8.533333-34.986667 2.986667-43.52-12.373333s-2.986667-34.986667 12.373333-43.52c28.16-15.36 49.066667-40.96 59.306667-71.253333 4.693333-13.226667 17.066667-21.76 30.293333-21.76 3.413333 0 6.826667 0.426667 10.24 1.706666 16.64 5.546667 25.6 23.893333 20.053334 40.533334-14.933333 45.653333-46.506667 83.2-88.746667 106.666666zM936.96 486.4c-4.266667 20.48-20.48 48.213333-71.68 66.133333-16.64 5.546667-34.986667-2.986667-40.533333-20.053333-5.546667-16.64 2.986667-34.986667 20.053333-40.533333 23.04-8.106667 29.44-16.213333 29.866667-18.773334 1.28-5.12-9.386667-32.426667-81.92-71.68-66.986667-36.266667-160.426667-68.266667-262.826667-90.026666s-200.533333-30.293333-276.48-24.746667c-81.92 6.4-102.826667 26.88-104.106667 32-0.426667 2.56 2.133333 12.8 19.626667 29.44 12.8 11.946667 13.653333 32.426667 1.706667 45.226667s-32.426667 13.653333-45.226667 1.706666c-40.106667-37.12-43.093333-69.12-38.826667-89.6 11.093333-51.626667 75.946667-76.373333 163.84-83.2 56.746667-93.013333 157.44-147.626667 263.68-147.626666 21.333333 0 43.093333 2.133333 64.426667 6.826666 128.853333 27.306667 225.28 132.266667 242.346667 261.973334 78.08 42.24 127.146667 91.306667 116.053333 142.933333z m-371.2-341.76c-87.466667-18.773333-176.64 11.946667-234.24 76.8 67.413333 2.133333 141.226667 12.373333 212.48 27.306667 70.826667 14.933333 142.506667 36.266667 205.226667 61.44-26.88-83.2-96-147.2-183.466667-165.546667zM449.944209 534.326876a32 32 0 1 1 62.601446 13.306348 32 32 0 1 1-62.601446-13.306348ZM240.213333 313.173333c1.706667 0 2.986667 0 4.693334 0.426667 17.493333 2.56 29.44 18.773333 27.306666 36.266667-18.773333 127.146667 65.28 247.893333 191.146667 274.346666 125.866667 26.88 251.733333-49.066667 286.72-172.8 4.693333-17.066667 22.613333-26.88 39.68-22.186666 17.066667 4.693333 26.88 22.613333 22.186667 39.68-44.373333 156.16-203.093333 251.733333-361.813334 218.026666s-264.96-186.026667-241.92-346.453333c2.56-15.786667 16.213333-27.306667 32-27.306667z"  horiz-adv-x="1024" />

    
    <glyph glyph-name="xiaoxi" unicode="&#58883;" d="M836.033 107.2l6-6 117.8-117.8h-235.6l-206.5-0.2h-5.8c-247.4 0-448 179.5-448 400.8s200.6 400.8 448 400.8 448-179.5 448-400.8c0.1-107.4-47.1-204.9-123.9-276.8z m-182.6 206.1c39.1 0 70.7 31.7 70.7 70.7s-31.7 70.7-70.7 70.7c-39.1 0-70.7-31.7-70.7-70.7s31.7-70.7 70.7-70.7z m-282.9 0c39.1 0 70.7 31.7 70.7 70.7s-31.7 70.7-70.7 70.7-70.7-31.7-70.7-70.7 31.6-70.7 70.7-70.7z"  horiz-adv-x="1024" />

    
    <glyph glyph-name="lianxiren-copy" unicode="&#58884;" d="M512 878.78798266c-273.37058515 0-494.78798266-221.41739635-494.78798266-494.78798266s221.41739635-494.78798266 494.78798266-494.78798266 494.78798266 221.41739635 494.78798266 494.78798266S785.36944465 878.78798266 512 878.78798266zM512 730.3519297c81.88682292 0 148.43605188-66.54922892 148.43605188-148.4360519 0-82.134387-66.54922892-148.43605188-148.43605188-148.43605184s-148.43605188 66.30166487-148.43605188 148.43605184C363.56394812 663.80270075 430.11203655 730.3519297 512 730.3519297zM512 27.75347396999996c-123.94427485 0-232.79738038 63.33317169-296.87210482 159.32204718 1.23668197 98.21581588 198.16230136 152.3948035 296.87210482 152.3948035s295.38785882-54.17898759 296.87210482-152.3948035C744.79738038 91.08550516000003 635.94427485 27.75347396999996 512 27.75347396999996z"  horiz-adv-x="1024" />

    
    <glyph glyph-name="QQkandian" unicode="&#58888;" d="M646.4 384c0-76.8-57.6-134.4-134.4-134.4S377.6 313.6 377.6 384c0 76.8 57.6 134.4 134.4 134.4 70.4 0 134.4-57.6 134.4-134.4M595.2 422.4c0-19.2-19.2-38.4-44.8-38.4S512 403.2 512 422.4c0 25.6 19.2 44.8 38.4 44.8s44.8-19.2 44.8-44.8M505.6 742.4c134.4 0 217.6-102.4 268.8-153.6 51.2-51.2 89.6-83.2 89.6-89.6 0-6.4-44.8-44.8-102.4-38.4-51.2 12.8-64 25.6-108.8 70.4-51.2 44.8-83.2 70.4-147.2 70.4s-115.2-51.2-172.8-96c-51.2-51.2-153.6-140.8-160-147.2 0-6.4-38.4-32-76.8 0-32 32-6.4 70.4 0 83.2 6.4 6.4 166.4 160 179.2 179.2 19.2 19.2 102.4 121.6 230.4 121.6M518.4 25.6c-134.4 0-217.6 102.4-268.8 153.6-57.6 51.2-89.6 83.2-89.6 89.6 0 6.4 44.8 44.8 102.4 38.4 51.2-12.8 64-25.6 108.8-70.4 51.2-44.8 83.2-70.4 147.2-70.4s121.6 51.2 172.8 96c51.2 51.2 160 140.8 160 140.8 0 6.4 38.4 32 76.8 0s12.8-70.4 6.4-83.2l-179.2-179.2c-25.6-12.8-108.8-115.2-236.8-115.2"  horiz-adv-x="1024" />

    
    <glyph glyph-name="order" unicode="&#58886;" d="M853.318872 767.975091h-177.06146a41.121054 41.121054 0 0 0-40.549361 32.014802 127.732529 127.732529 0 0 1-247.461358 0 41.121054 41.121054 0 0 0-40.549362-32.014802H170.635871A62.845385 62.845385 0 0 1 106.687936 704.027155v-768.028584a62.845385 62.845385 0 0 1 63.988771-63.988771h682.60133a62.845385 62.845385 0 0 1 63.98877 63.988771V704.027155a62.845385 62.845385 0 0 1-63.98877 63.988771z m-383.850951 0h85.345583a20.172593 20.172593 0 0 0 21.315979-21.315979 20.172593 20.172593 0 0 0-21.315979-21.315978h-85.345583a20.172593 20.172593 0 0 0-21.315979 21.315978 20.172593 20.172593 0 0 0 21.193473 21.315979z m127.97754-661.326188H256.144796a21.315978 21.315978 0 0 0 0 42.672792h341.300665a21.315978 21.315978 0 0 0 0-42.672792z m85.345584 191.925476H256.02229a21.315978 21.315978 0 0 0 0 42.672792h426.646249a21.315978 21.315978 0 0 0 0-42.672792z m85.345584 191.925476H256.02229a21.315978 21.315978 0 0 0 0 42.672792h511.950998a21.315978 21.315978 0 0 0 0-42.672792z"  horiz-adv-x="1024" />

    
    <glyph glyph-name="geren1" unicode="&#59389;" d="M629.226667 239.317333c-5.226667 1.813333-39.253333 23.701333-17.621334 84.330667h-0.277333c51.968 37.44 99.029333 132.138667 99.029333 251.114667C710.357333 693.376 636.373333 789.333333 512.170667 789.333333c-126.037333 0-198.528-95.936-198.528-214.570666 0-115.712 45.162667-215.018667 99.904-251.733334 13.653333-60.117333-11.669333-79.637333-19.562667-82.688C284.736 198.357333 106.666667 98.474667 106.666667 40.405333v-37.909333C106.666667-10.026667 117.973333-21.333333 130.474667-21.333333h763.050666c11.818667 0 23.808 10.389333 23.808 23.850666v37.909334c0 56.853333-173.504 158.592-288.106666 198.912"  horiz-adv-x="1024" />

    


  </font>
</defs>
</svg>
